<svg width="99.99999999999999" height="99.99999999999999" xmlns="http://www.w3.org/2000/svg">
 <title>file_type_css</title>

 <g>
  <title>Layer 1</title>
  <rect id="svg_8" height="89.05652" width="89.05652" y="4.76415" x="6.46226" stroke-width="5" fill="#2f99e0"/>
  <polygon id="svg_1" fill="#1572b6" points="22.761977701166415,79.771150931987 16.598537936145476,10.614922170214186 84.3469940531104,10.614922170214186 78.175318401416,79.76016974975573 50.43160749773779,87.45212674852519 22.761977701166415,79.771150931987 "/>
  <polygon id="svg_2" fill="#33a9dc" points="50.47276861168757,81.57408518795273 72.89276782446268,75.35850050969111 78.16709036592147,16.270690313280284 50.47276861168757,16.270690313280284 50.47276861168757,81.57408518795273 "/>
  <polygon id="svg_3" fill="#fff" points="50.47276861168757,41.32510550122697 61.69648946174493,41.32510550122697 62.47034876189264,32.63975977183145 50.47276861168757,32.63975977183145 50.47276861168757,24.157479550746302 50.50295377752536,24.157479550746302 71.7402095267953,24.157479550746302 71.53714140142529,26.43240836318364 69.45430214918633,49.807383105252484 50.47276861168757,49.807383105252484 50.47276861168757,41.32510550122697 "/>
  <polygon id="svg_4" fill="#ebebeb" points="50.524905673749345,63.352687089872234 50.48648723829774,63.363663037984225 41.041000835364684,60.811569290712214 40.437281816251016,54.04715056801615 35.846257843307285,54.04715056801615 31.92207113377026,54.04715056801615 33.11030518839107,67.36468661842446 50.48374455979956,72.18896388257599 50.524905673749345,72.177987934464 50.524905673749345,63.352687089872234 "/>
  <polygon id="svg_5" fill="#fff" points="60.974767223659,49.44789332545861 59.95393077157405,60.806083933715854 50.49472050791155,63.35817244686859 50.49472050791155,72.18347852557963 67.88188374004949,67.36468661842446 68.01086290713374,65.93222332448386 69.48448731502413,49.44789332545861 60.974767223659,49.44789332545861 "/>
  <polygon id="svg_6" fill="#ebebeb" points="50.50295377752536,24.157479550746302 50.50295377752536,29.426314118149094 50.50295377752536,32.6178026414882 50.50295377752536,32.63975977183145 30.042305241020586,32.63975977183145 30.042305241020586,32.63975977183145 30.014862753680973,32.63975977183145 29.844722472646936,30.732551391742163 29.457792822573083,26.43240836318364 29.254722080143438,24.157479550746302 50.50295377752536,24.157479550746302 "/>
  <polygon id="svg_7" fill="#ebebeb" points="50.47276861168757,41.32510550122697 50.47276861168757,46.5939426856894 50.47276861168757,49.7854312090285 50.47276861168757,49.807383105252484 41.17272268094712,49.807383105252484 41.17272268094712,49.807383105252484 41.145280193607505,49.807383105252484 40.97513991257347,47.9001747251632 40.59095555805743,43.600036930723945 40.38788743268742,41.32510550122697 50.47276861168757,41.32510550122697 "/>
  <path id="svg_20" d="m22.83021,79.8112l27.5471,7.35853l27.73582,-7.35848l6.22641,-69.4339l11.13207,10.56603l0,72.64144l-58.11316,-0.18868l-14.52824,-13.58494z" fill="#2882bf"/>
  <path id="svg_21" d="m33.20756,89.34807l4.68852,4.42543l57.20045,0l0.37508,-8.1132l-62.26405,3.68777z" stroke-width="5" fill="#2781bc"/>
 </g>
</svg>