<svg width="200" height="200" xmlns="http://www.w3.org/2000/svg">
 <g>
  <title>Layer 1</title>
  <path class="st0" d="m-3900.27271,80.00559l3618.6,0l0,3618.6l-3618.6,0l0,-3618.6z" fill="#222" id="svg_1"/>
  <g id="svg_10">
   <rect fill="#211e1e" stroke-width="5" x="-0.49986" y="-2.99981" width="200.47847" height="204.1125" id="svg_8"/>
   <circle class="st1" cx="99.6101" cy="101.64304" r="13.69267" fill="#00d8ff" id="svg_2" stroke-width="5"/>
   <path class="st2" d="m99.5256,66.79765c22.54003,0 43.48194,3.23507 59.26883,8.66753c19.02196,6.54782 30.71924,16.47497 30.71924,25.46435c0,9.3667 -12.39646,19.91535 -32.82232,26.67957c-15.44286,5.11618 -35.76883,7.79079 -57.16576,7.79079c-21.94073,0 -42.71063,-2.50815 -58.33105,-7.84628c-19.75998,-6.75313 -31.66257,-17.43495 -31.66257,-26.62409c0,-8.91724 11.17013,-18.76671 29.92574,-25.30343c15.84793,-5.52125 37.3059,-8.82845 60.06789,-8.82845z" fill="none" stroke="#00d8ff" stroke-width="10" stroke-miterlimit="10" id="svg_3"/>
   <path class="st2" d="m69.81072,83.96624c11.25891,-19.52692 24.52656,-36.05183 37.12279,-47.0111c15.1765,-13.20661 29.62054,-18.37828 37.40578,-13.88914c8.11263,4.6778 11.05915,20.68666 6.71429,41.7673c-3.285,15.93672 -11.12019,34.87544 -21.81311,53.41464c-10.95927,19.00531 -23.5111,35.74664 -35.9353,46.61157c-15.72031,13.74486 -30.92456,18.71677 -38.88182,14.12775c-7.7242,-4.45584 -10.67627,-19.04971 -6.97509,-38.56553c3.12963,-16.50271 10.98701,-36.73991 22.36246,-56.45549l0,0z" fill="none" stroke="#00d8ff" stroke-width="10" stroke-miterlimit="10" id="svg_4"/>
   <path class="st2" d="m69.7609,118.26329c-11.26296,-19.51027 -18.93395,-39.2536 -22.13296,-55.63979c-3.8521,-19.74333 -1.12906,-34.84215 6.63048,-39.34239c8.08609,-4.69445 23.38379,0.74912 39.4342,15.03778c12.13743,10.8039 24.59587,27.05136 35.28876,45.57391c10.96409,18.98867 19.18301,38.22149 22.37649,54.40791c4.04581,20.4869 0.76931,36.14061 -7.1618,40.74073c-7.69866,4.46694 -21.77875,-0.2608 -36.79972,-13.21771c-12.68536,-10.94817 -26.26179,-27.86151 -37.63545,-47.56045l0,0z" fill="none" stroke="#00d8ff" stroke-miterlimit="10" id="svg_5" stroke-width="10"/>
  </g>
 </g>

</svg>